PathFileType	4	(X/Y/Z)	/Users/itak/Documents/Research/Walk-IL/dataset/trc/00409_00012.trc
DataRate	CameraRate	NumFrames	NumMarkers	Units	OrigDataRate	OrigDataStartFrame	OrigNumFrames
100.000000	100.000000	4	56	mm	100.000000	500	667
Frame#	Time	RPSI			LPSI			L3			STRN			T10			C7			CLAV			RBAK			LBAK			LSHO			LUPA			LAEL			LAOL			LWTS			LWPS			LFRA			LHPS			LHTS			RSHO			RUPA			RAEL			RAOL			RWTS			RWPS			RFRA			RIFD			RHTS			RHPS			RBHD			LFHD			RFHD			LBHD			LHIP			RHIP			RASI			LASI			LKNE			LTHI			LANK			LTIP			LTOE			LMT1			LMT5			LHEE			RKNE			RTHI			RANK			RTIP			RTOE			RMT5			RHEE			LIFD			RMT1			*53			*54			*55			
		X1	Y1	Z1	X2	Y2	Z2	X3	Y3	Z3	X4	Y4	Z4	X5	Y5	Z5	X6	Y6	Z6	X7	Y7	Z7	X8	Y8	Z8	X9	Y9	Z9	X10	Y10	Z10	X11	Y11	Z11	X12	Y12	Z12	X13	Y13	Z13	X14	Y14	Z14	X15	Y15	Z15	X16	Y16	Z16	X17	Y17	Z17	X18	Y18	Z18	X19	Y19	Z19	X20	Y20	Z20	X21	Y21	Z21	X22	Y22	Z22	X23	Y23	Z23	X24	Y24	Z24	X25	Y25	Z25	X26	Y26	Z26	X27	Y27	Z27	X28	Y28	Z28	X29	Y29	Z29	X30	Y30	Z30	X31	Y31	Z31	X32	Y32	Z32	X33	Y33	Z33	X34	Y34	Z34	X35	Y35	Z35	X36	Y36	Z36	X37	Y37	Z37	X38	Y38	Z38	X39	Y39	Z39	X40	Y40	Z40	X41	Y41	Z41	X42	Y42	Z42	X43	Y43	Z43	X44	Y44	Z44	X45	Y45	Z45	X46	Y46	Z46	X47	Y47	Z47	X48	Y48	Z48	X49	Y49	Z49	X50	Y50	Z50	X51	Y51	Z51	X52	Y52	Z52	X53	Y53	Z53	X54	Y54	Z54	X55	Y55	Z55	X56	Y56	Z56	

501	5	766.1499633789062	945.100341796875	-39.02901840209961	899.2691650390625	937.9356689453125	-42.5944709777832	822.2290649414062	1017.5078125	-46.96809387207031	814.0714111328125	1189.727783203125	174.4840850830078	817.9168701171875	1120.439819335938	-71.12311553955078	809.9287109375	1371.46044921875	-49.68612670898438	808.8416748046875	1303.965087890625	111.3807678222656	748.3792724609375	1220.342529296875	-84.71932220458984	913.5008544921875	1339.217529296875	-66.59703826904297	965.762451171875	1359.862548828125	18.00714683532715	1034.341918945312	1247.17919921875	-19.91802978515625	1064.496337890625	1051.625	-28.67410278320312	996.321533203125	1032.401489257812	-77.434814453125	1032.504638671875	824.532470703125	34.03905868530273	1095.204223632812	823.1936645507812	-19.86050605773926	1079.50048828125	947.4127807617188	-27.45452308654785	1088.163330078125	735.5188598632812	-22.51927375793457	1055.779663085938	725.8793334960938	31.77195930480957	654.1815795898438	1348.161376953125	6.535561561584473	597.6455688476562	1280.719848632812	-7.060204029083252	552.708740234375	1020.094116210938	18.26278877258301	646.3667602539062	1004.898681640625	-1.550044536590576	600.985595703125	877.5728759765625	220.287353515625	538.2257690429688	850.3406372070312	192.3320159912109	539.9566650390625	967.4141845703125	65.27103424072266	593.4361572265625	717.9341430664062	294.4314880371094	582.6943359375	789.224609375	281.8282775878906	537.1931762695312	772.6787109375	231.78759765625	719.3446044921875	1557.804809570312	-13.70838356018066	854.8428344726562	1573.284301757812	128.4431304931641	733.7810668945312	1569.308837890625	118.7594909667969	878.133544921875	1561.396606445312	-18.1683292388916	1010.22509765625	940.1542358398438	47.91599655151367	650.2632446289062	922.2424926757812	42.52300643920898	701.5860595703125	937.106201171875	178.0122375488281	964.40087890625	950.2310180664062	161.8753967285156	982.912841796875	477.5122680664062	250.5120697021484	1000.426391601562	607.8564453125	193.7771453857422	970.9288940429688	32.61774444580078	239.8610534667969	986.742431640625	240.5022735595703	256.3273620605469	873.8706665039062	33.62378692626953	445.7355041503906	857.1554565429688	36.77283477783203	360.6904602050781	963.544677734375	32.15982437133789	366.9028015136719	919.6117553710938	29.25675964355469	196.9082946777344	729.7818603515625	439.1587524414062	56.9117317199707	679.4254760742188	690.7137451171875	115.174430847168	749.9615478515625	92.03402709960938	-204.2953643798828	746.0809936523438	319.5282592773438	5.445805072784424	880.6126098632812	30.1152172088623	-98.42314910888672	778.2490844726562	42.11093521118164	-140.2436065673828	774.4094848632812	130.6323089599609	-284.06103515625	1037.791748046875	645.05322265625	6.802628993988037	872.415283203125	58.61918640136719	-163.2021484375	nan	nan	nan	nan	nan	nan	nan	nan	nan	
502	5.01	768.6986083984375	946.5408325195312	-30.35061264038086	901.9034423828125	940.1923217773438	-33.07043838500977	824.6548461914062	1018.667358398438	-37.70967483520508	814.9241943359375	1191.58642578125	182.4420013427734	820.43994140625	1121.396362304688	-62.39904022216797	812.7318725585938	1372.530883789062	-42.3780403137207	810.2247314453125	1305.681030273438	118.9646530151367	751.5003051757812	1221.391479492188	-77.27188110351562	916.4219360351562	1340.280395507812	-58.1768684387207	967.8113403320312	1361.391235351562	26.8034839630127	1037.241088867188	1248.715087890625	-9.302614212036133	1068.468505859375	1053.16015625	-15.38717746734619	1001.33740234375	1033.254760742188	-65.34693908691406	1036.427001953125	827.033447265625	50.24193954467773	1099.959594726562	824.95263671875	-2.411473989486694	1083.90185546875	949.0125122070312	-12.43788146972656	1093.524291992188	737.2886962890625	-3.807293176651001	1060.152099609375	728.437255859375	49.9549560546875	656.556640625	1349.6103515625	12.60534572601318	600.0895385742188	1282.329223632812	-1.374966025352478	556.4050903320312	1021.487854003906	22.02294921875	650.1947021484375	1006.974548339844	3.150078535079956	601.9833374023438	872.2086791992188	220.0611267089844	539.5901489257812	846.09228515625	190.3310546875	542.8383178710938	967.5010375976562	67.36182403564453	593.5595703125	709.85595703125	288.0994873046875	582.70751953125	781.5255737304688	277.9231872558594	538.0128784179688	766.9445190429688	226.8487701416016	721.0914306640625	1559.064697265625	-7.64796781539917	856.1231689453125	1574.803344726562	135.6936492919922	735.0958862304688	1570.786743164062	125.0048065185547	880.5275268554688	1562.653564453125	-10.73047256469727	1012.181091308594	942.6054077148438	58.01871871948242	652.3563232421875	923.1190185546875	50.27226257324219	702.8626098632812	938.3427124023438	186.0254974365234	965.777099609375	952.2266235351562	171.7795867919922	983.6925659179688	477.5021362304688	255.7575225830078	1001.722412109375	608.85693359375	200.8154296875	970.6480712890625	32.95959854125977	240.1309204101562	986.7365112304688	240.4001159667969	258.9970703125	873.5103759765625	32.68354034423828	446.5146179199219	856.780029296875	36.46370315551758	360.9434509277344	963.2968139648438	32.52552032470703	367.1192932128906	919.4794311523438	29.43377876281738	197.0824584960938	729.89404296875	439.957763671875	67.760009765625	680.542724609375	691.7189331054688	123.8344345092773	750.4590454101562	96.06060028076172	-198.9930877685547	745.7723999023438	321.1415710449219	14.88866519927979	880.7323608398438	30.47367095947266	-98.40785980224609	778.6484375	42.37764739990234	-137.4899139404297	775.7517700195312	137.9205474853516	-277.0642395019531	1043.072387695312	647.2764892578125	25.58658981323242	872.2728271484375	59.52984237670898	-159.7099456787109	nan	nan	nan	nan	nan	nan	nan	nan	nan	
503	5.02	771.285888671875	947.87890625	-21.92793655395508	904.551025390625	942.3134765625	-23.720458984375	827.17333984375	1019.777770996094	-28.63508033752441	815.6741333007812	1193.335571289062	190.3115234375	823.0597534179688	1122.319580078125	-53.72143936157227	815.4896240234375	1373.555297851562	-35.08575057983398	811.52294921875	1307.303100585938	126.4963150024414	754.663330078125	1222.409301757812	-69.91802215576172	919.27197265625	1341.255859375	-49.73315811157227	969.7698364257812	1362.861206054688	35.6109619140625	1040.074829101562	1250.2626953125	1.278282880783081	1072.409423828125	1054.742919921875	-2.177894830703735	1006.320251464844	1034.129516601562	-53.28094863891602	1040.20556640625	829.672607421875	66.55677032470703	1104.6005859375	826.845458984375	15.19284534454346	1088.238159179688	950.6798706054688	2.595963954925537	1098.730834960938	739.2244262695312	15.29555606842041	1064.4052734375	731.2407836914062	68.54236602783203	658.8705444335938	1350.9794921875	18.59594917297363	602.506103515625	1283.841186523438	4.218945503234863	560.0682373046875	1022.80419921875	25.79189682006836	653.9660034179688	1008.966918945312	7.846242427825928	602.9452514648438	867.0097045898438	219.6240234375	540.9124145507812	842.0249633789062	188.1430511474609	545.7556762695312	967.5759887695312	69.43233489990234	593.918212890625	702.1395874023438	281.3853454589844	582.835205078125	774.080810546875	273.6847229003906	538.8858032226562	761.4882202148438	221.6404724121094	722.6221923828125	1560.276733398438	-1.654093742370605	857.3348999023438	1576.260620117188	142.9043579101562	736.3114013671875	1572.200561523438	131.1854553222656	882.8485717773438	1563.842529296875	-3.331964492797852	1014.108032226562	944.8738403320312	67.99824523925781	654.4218139648438	923.9406127929688	57.70600509643555	704.0492553710938	939.5645751953125	193.8116912841797	967.052001953125	954.0220336914062	181.4943237304688	984.654052734375	477.3775024414062	260.4398498535156	1003.051208496094	609.5892333984375	207.1514434814453	970.3765869140625	33.2485466003418	240.3766937255859	986.8137817382812	240.2233581542969	261.3574523925781	873.20361328125	31.94007301330566	447.1720886230469	856.4067993164062	36.23893356323242	361.1328735351562	963.0250854492188	32.87229919433594	367.3160705566406	919.3624267578125	29.59416007995605	197.2183227539062	729.862548828125	440.7004089355469	78.83860015869141	681.5252685546875	692.7350463867188	132.4375457763672	750.7037353515625	100.2314071655273	-193.3463592529297	745.326171875	322.7889099121094	24.5070629119873	880.8558959960938	30.78269958496094	-98.43161010742188	779.0527954101562	42.81658935546875	-134.5807189941406	777.1217651367188	145.1764831542969	-269.4155578613281	1048.234008789062	649.7423095703125	44.76116561889648	872.0982055664062	60.29944229125977	-155.8997802734375	nan	nan	nan	nan	nan	nan	nan	nan	nan	
504	5.03	773.906494140625	949.0698852539062	-13.79612255096436	907.2098999023438	944.2674560546875	-14.59034156799316	829.791015625	1020.822448730469	-19.77676773071289	816.3064575195312	1194.926025390625	198.0813903808594	825.8046264648438	1123.1982421875	-45.12143707275391	818.193359375	1374.5205078125	-27.80323791503906	812.7351684570312	1308.787963867188	133.9829559326172	757.8410034179688	1223.371215820312	-62.66508865356445	922.060302734375	1342.152709960938	-41.28045272827148	971.6370849609375	1364.242065429688	44.43350982666016	1042.831909179688	1251.769653320312	11.82798671722412	1076.3212890625	1056.332641601562	10.93148422241211	1011.266479492188	1034.98095703125	-41.24590301513672	1043.842895507812	832.4364013671875	82.97064208984375	1109.120361328125	828.852783203125	32.88841247558594	1092.506103515625	952.3840942382812	17.6135196685791	1103.76171875	741.3097534179688	34.72386169433594	1068.542724609375	734.274169921875	87.48459625244141	661.1168212890625	1352.228393554688	24.51997375488281	604.902587890625	1285.1953125	9.72252082824707	563.6651611328125	1023.979858398438	29.54059982299805	657.6616821289062	1010.808471679688	12.51460456848145	603.8538208007812	861.9767456054688	219.0034027099609	542.1832275390625	838.127197265625	185.8027954101562	548.6976928710938	967.5891723632812	71.48768615722656	594.5146484375	694.8121948242188	274.380859375	583.0668334960938	766.9103393554688	269.1750183105469	539.7757568359375	756.3145751953125	216.2195281982422	724.0159912109375	1561.41845703125	4.289507389068604	858.481689453125	1577.647583007812	150.0656433105469	737.4352416992188	1573.539306640625	137.3040313720703	885.0982666015625	1564.941162109375	4.024908065795898	1016.048522949219	946.9583740234375	77.87258148193359	656.4481811523438	924.6608276367188	64.81391906738281	705.1499633789062	940.7238159179688	201.3629608154297	968.2135009765625	955.5859985351562	190.9880676269531	985.7947387695312	477.1625671386719	264.6757507324219	1004.420043945312	610.1117553710938	212.9295806884766	970.1248779296875	33.50422668457031	240.5950317382812	986.9942016601562	239.9886169433594	263.4817504882812	872.953369140625	31.35042190551758	447.7088928222656	856.0631713867188	36.06771469116211	361.2718811035156	962.7549438476562	33.17266082763672	367.4889831542969	919.2695922851562	29.74921607971191	197.3216705322266	729.7362670898438	441.3758850097656	90.11322021484375	682.4097290039062	693.7345581054688	140.9725189208984	750.65673828125	104.5654296875	-187.4136352539062	744.760986328125	324.4529724121094	34.25620269775391	880.9609985351562	30.98122787475586	-98.40599822998047	779.3917236328125	43.48051452636719	-131.5814361572266	778.4806518554688	152.4001159667969	-261.1533508300781	1053.27685546875	652.4318237304688	64.28914642333984	871.8956909179688	61.05387496948242	-151.7930908203125	nan	nan	nan	nan	nan	nan	nan	nan	nan	
